<svg width="129" height="129" viewBox="0 0 129 129" fill="none" xmlns="http://www.w3.org/2000/svg">
<path d="M128.75 66.8145C128.75 53.005 119.01 41.4416 106.04 38.5967V11.0726C106.04 5.38071 101.41 0.75 95.7177 0.75H42.0403C36.3484 0.75 31.7177 5.38071 31.7177 11.0726V33.7823H19.7828L18.5379 38.7701L14.1322 36.1255L3.09116 47.1603L5.73581 51.5701L0.75 52.815V68.4269L5.73787 69.6718L3.09116 74.0816L14.1301 85.1185L18.5358 82.4739L19.7828 87.4597H31.7177V118.427C31.7177 124.119 36.3484 128.75 42.0403 128.75H95.7177C101.41 128.75 106.04 124.119 106.04 118.427V95.0323C119.01 92.1874 128.75 80.6241 128.75 66.8145ZM124.621 66.8145C124.621 70.8383 123.636 74.6287 121.927 77.9918C120.781 74.8393 118.145 72.3598 114.738 71.5072L106.04 69.3312V68.8377C108.613 66.8992 110.169 63.8499 110.169 60.623V56.494C110.169 53.6099 108.949 50.8352 106.821 48.8821C104.694 46.9353 101.812 45.9567 98.9301 46.2106C93.6553 46.6669 89.5242 51.374 89.5242 56.9193V60.621C89.5242 63.8478 91.0808 66.8971 93.6532 68.8357V69.3291L84.9554 71.5051C81.549 72.3577 78.9126 74.8372 77.7668 77.9897C76.0574 74.6287 75.0726 70.8383 75.0726 66.8145C75.0726 53.1536 86.1859 42.0403 99.8468 42.0403C113.508 42.0403 124.621 53.1536 124.621 66.8145ZM93.6532 38.5967C92.2328 38.9085 90.8579 39.3379 89.5242 39.8499V33.7823H48.2339V62.6855H71.2739C71.0777 64.0377 70.9435 65.4086 70.9435 66.8145C70.9435 80.6241 80.6839 92.1874 93.6532 95.0323V99.8468H44.1048V29.6532H93.6532V38.5967ZM72.1616 58.5564H52.3629V37.9113H85.3952V41.8215C79.0901 45.4819 74.2881 51.4401 72.1616 58.5564ZM42.0403 4.87903H95.7177C99.1324 4.87903 101.911 7.65787 101.911 11.0726V17.2661H35.8468V11.0726C35.8468 7.65787 38.6256 4.87903 42.0403 4.87903ZM31.7177 70.0599C30.415 70.6339 29.0091 70.9435 27.5887 70.9435C21.8968 70.9435 17.2661 66.3128 17.2661 60.621C17.2661 54.9291 21.8968 50.2984 27.5887 50.2984C29.0091 50.2984 30.415 50.6081 31.7177 51.182V70.0599ZM23.0075 83.3306L22.0021 79.3069L21.583 78.2024L19.2254 77.2444L14.7701 79.9201L8.29168 73.4395L10.9673 68.9823L9.93503 66.4635L4.87903 65.2021V56.0398L9.92884 54.7784L10.9673 52.2597L8.29168 47.8024L14.7701 41.3219L19.2254 43.9975L21.7441 42.9735L23.0075 37.9113H31.7177V46.799C30.3779 46.3965 28.9905 46.1694 27.5887 46.1694C19.6197 46.1694 13.1371 52.654 13.1371 60.621C13.1371 68.5879 19.6197 75.0726 27.5887 75.0726C28.9905 75.0726 30.3779 74.8455 31.7177 74.4429V83.3306H23.0075ZM95.7177 124.621H42.0403C38.6256 124.621 35.8468 121.842 35.8468 118.427V112.234H101.911V118.427C101.911 121.842 99.1324 124.621 95.7177 124.621ZM101.911 108.105H35.8468V21.3952H101.911V38.0166C101.226 37.967 100.545 37.9113 99.8468 37.9113C99.149 37.9113 98.4677 37.967 97.7823 38.0166V25.5242H39.9758V103.976H97.7823V95.6124C98.4677 95.662 99.149 95.7177 99.8468 95.7177C100.545 95.7177 101.226 95.662 101.911 95.6124V108.105ZM99.8468 91.5887C92.4455 91.5887 85.8101 88.3082 81.2661 83.1469V81.5201C81.2661 78.6731 83.1964 76.2019 85.9567 75.5103L97.7823 72.5559V66.5461L96.7562 65.9495C94.8135 64.8181 93.6532 62.8259 93.6532 60.621V56.9193C93.6532 53.4943 96.1286 50.5977 99.2873 50.3232C101.059 50.1807 102.737 50.7381 104.032 51.9252C105.307 53.0958 106.04 54.7598 106.04 56.4919V60.621C106.04 62.8259 104.88 64.8181 102.937 65.9495L101.911 66.5461V72.5559L113.737 75.5103C116.497 76.2019 118.427 78.6731 118.427 81.5201V83.1469C113.883 88.3082 107.248 91.5887 99.8468 91.5887Z" fill="#9376E2"/>
<path d="M77.1372 9.00806H81.2662V13.1371H77.1372V9.00806Z" fill="#9376E2"/>
<path d="M56.4917 9.00806H73.0078V13.1371H56.4917V9.00806Z" fill="#9376E2"/>
<path d="M60.6211 116.363H77.1372V120.492H60.6211V116.363Z" fill="#9376E2"/>
<path d="M89.5244 116.363H93.6534V120.492H89.5244V116.363Z" fill="#9376E2"/>
<path d="M44.105 116.363H48.234V120.492H44.105V116.363Z" fill="#9376E2"/>
<path d="M48.2339 66.8145H66.8145V70.9435H48.2339V66.8145Z" fill="#9376E2"/>
<path d="M48.2339 75.0726H66.8145V79.2016H48.2339V75.0726Z" fill="#9376E2"/>
<path d="M48.2339 83.3306H66.8145V87.4597H48.2339V83.3306Z" fill="#9376E2"/>
<path d="M48.2339 91.5887H66.8145V95.7177H48.2339V91.5887Z" fill="#9376E2"/>
<path d="M116.363 37.9113C119.778 37.9113 122.557 35.1325 122.557 31.7177C122.557 29.0297 120.824 26.7588 118.427 25.9041V9.00806H114.298V25.9041C111.902 26.7588 110.169 29.0297 110.169 31.7177C110.169 35.1325 112.948 37.9113 116.363 37.9113ZM116.363 29.6532C117.501 29.6532 118.427 30.5781 118.427 31.7177C118.427 32.8574 117.501 33.7823 116.363 33.7823C115.225 33.7823 114.298 32.8574 114.298 31.7177C114.298 30.5781 115.225 29.6532 116.363 29.6532Z" fill="#9376E2"/>
<path d="M114.298 0.75H118.427V4.87903H114.298V0.75Z" fill="#9376E2"/>
<path d="M21.3952 91.5887C17.9805 91.5887 15.2017 94.3676 15.2017 97.7823C15.2017 100.47 16.9338 102.741 19.3307 103.596V120.492H23.4597V103.596C25.8566 102.741 27.5888 100.47 27.5888 97.7823C27.5888 94.3676 24.8099 91.5887 21.3952 91.5887ZM21.3952 99.8468C20.2577 99.8468 19.3307 98.9219 19.3307 97.7823C19.3307 96.6427 20.2577 95.7177 21.3952 95.7177C22.5328 95.7177 23.4597 96.6427 23.4597 97.7823C23.4597 98.9219 22.5328 99.8468 21.3952 99.8468Z" fill="#9376E2"/>
<path d="M19.3306 124.621H23.4596V128.75H19.3306V124.621Z" fill="#9376E2"/>
</svg>
