<svg width="128" height="128" viewBox="0 0 128 128" fill="none" xmlns="http://www.w3.org/2000/svg">
<g clip-path="url(#clip0)">
<path d="M12.7998 8.53333V29.8667H17.0665V8.53333C17.0665 6.17653 18.9763 4.26667 21.3331 4.26667H106.666C109.023 4.26667 110.933 6.17653 110.933 8.53333H115.2C115.2 3.8208 111.379 0 106.666 0H21.3331C16.6206 0 12.7998 3.8208 12.7998 8.53333Z" fill="#9376E2"/>
<path d="M8.53333 128H106.667C111.379 128 115.2 124.179 115.2 119.467V110.933H110.933V119.467C110.933 121.823 109.023 123.733 106.667 123.733C104.31 123.733 102.4 121.823 102.4 119.467V113.067C102.4 111.888 101.445 110.933 100.267 110.933H17.0667V68.2667H12.8V110.933H2.13333C0.954667 110.933 0 111.888 0 113.067V119.467C0 124.179 3.8208 128 8.53333 128ZM4.26667 115.2H98.1333V119.467C98.1323 120.966 98.5259 122.437 99.2795 123.733H8.53333C6.17653 123.733 4.26667 121.823 4.26667 119.467V115.2Z" fill="#9376E2"/>
<path d="M2.13333 64H44.8C45.9787 64 46.9333 63.0453 46.9333 61.8667V36.2667C46.9333 35.088 45.9787 34.1333 44.8 34.1333H2.13333C0.954667 34.1333 0 35.088 0 36.2667V61.8667C0 63.0453 0.954667 64 2.13333 64ZM4.26667 38.4H42.6667V59.7333H4.26667V38.4Z" fill="#9376E2"/>
<path d="M13.4248 43.2917L9.15809 47.5584C8.32556 48.392 8.32556 49.7413 9.15809 50.5749L13.4248 54.8416L16.4413 51.8251L13.6829 49.0667L16.4413 46.3083L13.4248 43.2917Z" fill="#9376E2"/>
<path d="M33.5082 43.2917L30.4917 46.3083L33.2501 49.0667L30.4917 51.8251L33.5082 54.8416L37.7749 50.5749C38.6074 49.7413 38.6074 48.392 37.7749 47.5584L33.5082 43.2917Z" fill="#9376E2"/>
<path d="M19.3076 54.792L23.5764 41.9904L27.6255 43.3408L23.3545 56.1413L19.3076 54.792Z" fill="#9376E2"/>
<path d="M125.867 12.8H53.3335C52.1549 12.8 51.2002 13.7547 51.2002 14.9333V57.6C51.2002 58.7787 52.1549 59.7333 53.3335 59.7333H125.867C127.046 59.7333 128 58.7787 128 57.6V14.9333C128 13.7547 127.046 12.8 125.867 12.8ZM123.734 55.4667H55.4669V50.2741L74.6242 38.7797L93.301 50.8587C93.9426 51.272 94.757 51.312 95.4343 50.9611L110.879 42.9611L123.734 50.304V55.4667ZM123.734 45.3909L112 38.6816C111.372 38.3211 110.603 38.3067 109.96 38.6389L94.5858 46.6032L75.8338 34.4747C75.1501 34.0331 74.2743 34.0187 73.5762 34.4384L55.4669 45.2992V17.0667H123.734V45.3909Z" fill="#9376E2"/>
<path d="M101.333 36.2667C105.457 36.2667 108.8 32.9237 108.8 28.8C108.8 24.6763 105.457 21.3333 101.333 21.3333C97.2096 21.3333 93.8667 24.6763 93.8667 28.8C93.8667 32.9237 97.2096 36.2667 101.333 36.2667ZM101.333 25.6C103.101 25.6 104.533 27.0325 104.533 28.8C104.533 30.5675 103.101 32 101.333 32C99.5659 32 98.1334 30.5675 98.1334 28.8C98.1334 27.0325 99.5659 25.6 101.333 25.6Z" fill="#9376E2"/>
<path d="M21.333 70.4V96C21.333 97.1787 22.2877 98.1333 23.4663 98.1333H76.7997C77.9783 98.1333 78.933 97.1787 78.933 96V70.4C78.933 69.2213 77.9783 68.2667 76.7997 68.2667H23.4663C22.2877 68.2667 21.333 69.2213 21.333 70.4ZM25.5997 72.5333H74.6663V93.8667H25.5997V72.5333Z" fill="#9376E2"/>
<path d="M29.8667 76.8H38.4V81.0667H29.8667V76.8Z" fill="#9376E2"/>
<path d="M42.667 76.8H61.867V81.0667H42.667V76.8Z" fill="#9376E2"/>
<path d="M66.1333 76.8H70.4V81.0667H66.1333V76.8Z" fill="#9376E2"/>
<path d="M29.8667 85.3333H55.4667V89.6H29.8667V85.3333Z" fill="#9376E2"/>
<path d="M59.7334 85.3333H70.4001V89.6H59.7334V85.3333Z" fill="#9376E2"/>
<path d="M21.333 8.53333H25.5997V12.8H21.333V8.53333Z" fill="#9376E2"/>
<path d="M29.8667 8.53333H34.1334V12.8H29.8667V8.53333Z" fill="#9376E2"/>
<path d="M38.3999 8.53333H42.6666V12.8H38.3999V8.53333Z" fill="#9376E2"/>
<path d="M21.333 17.0667H46.933V21.3333H21.333V17.0667Z" fill="#9376E2"/>
<path d="M125.867 76.8H85.3335C84.1549 76.8 83.2002 77.7547 83.2002 78.9333V104.533C83.2002 105.712 84.1549 106.667 85.3335 106.667H125.867C127.046 106.667 128 105.712 128 104.533V78.9333C128 77.7547 127.046 76.8 125.867 76.8ZM123.734 102.4H87.4669V81.0667H123.734V102.4Z" fill="#9376E2"/>
<path d="M91.7334 85.3333H96.0001V89.6H91.7334V85.3333Z" fill="#9376E2"/>
<path d="M91.7334 93.8667H96.0001V98.1333H91.7334V93.8667Z" fill="#9376E2"/>
<path d="M100.267 85.3333H119.467V89.6H100.267V85.3333Z" fill="#9376E2"/>
<path d="M100.267 93.8667H119.467V98.1333H100.267V93.8667Z" fill="#9376E2"/>
<path d="M110.933 64H115.2V72.5333H110.933V64Z" fill="#9376E2"/>
</g>
<defs>
<clipPath id="clip0">
<rect width="128" height="128" fill="white"/>
</clipPath>
</defs>
</svg>
