<svg width="43" height="43" viewBox="0 0 43 43" fill="none" xmlns="http://www.w3.org/2000/svg">
<path d="M28.6666 39.4167V32.4829C28.7339 31.6286 28.6184 30.7697 28.328 29.9635C28.0377 29.1572 27.579 28.422 26.9825 27.8067C32.6083 27.1796 38.5208 25.0475 38.5208 15.265C38.5204 12.7635 37.5581 10.358 35.8333 8.54624C36.6501 6.35773 36.5923 3.9387 35.6721 1.79166C35.6721 1.79166 33.5579 1.16457 28.6666 4.44332C24.5602 3.33038 20.2315 3.33038 16.125 4.44332C11.2337 1.16457 9.11956 1.79166 9.11956 1.79166C8.19932 3.9387 8.14157 6.35773 8.95831 8.54624C7.22062 10.3714 6.25742 12.7987 6.27081 15.3187C6.27081 25.0296 12.1833 27.1617 17.8091 27.8604C17.2197 28.4695 16.7651 29.1959 16.4749 29.9923C16.1847 30.7888 16.0655 31.6374 16.125 32.4829V39.4167M16.125 34.0417C7.16665 36.7292 7.16665 29.5625 3.58331 28.6667L16.125 34.0417Z" stroke="white" stroke-width="2" stroke-linecap="round" stroke-linejoin="round"/>
</svg>
