<svg xmlns="http://www.w3.org/2000/svg" viewBox="0 0 48.59 69.75"><defs><style>.cls-1,.cls-2{fill:#9376e2;}.cls-2{font-size:12px;font-family:Calibri;}</style></defs><g id="Camada_2" data-name="Camada 2"><g id="Camada_1-2" data-name="Camada 1"><g id="Icon"><path class="cls-1" d="M.84,14.61a.84.84,0,0,0-.84.92L4.28,63.45a1.43,1.43,0,0,0,1,1.17l18.13,5a3.78,3.78,0,0,0,1.77,0l18.19-5a1.46,1.46,0,0,0,1-1.17l4.28-47.91a.84.84,0,0,0-.84-.92Zm38.65,11c0,.45-.11,1.23-.16,1.74l-.11,1.26c0,.5-.11,1.22-.14,1.6s-.07.69-.08.69H16.58a.83.83,0,0,0-.84.91l.4,4.42a1,1,0,0,0,1,.92h20.5a.73.73,0,0,1,.74.81c0,.45-.11,1.24-.15,1.74L37,53.92c-.05.51-.11,1.15-.13,1.44s-.45.62-.93.76l-10.72,3-.9.25-.9-.25-10.72-3a1.43,1.43,0,0,1-1-1.17L11,47.2a.82.82,0,0,1,.83-.91h4.29a1,1,0,0,1,1,.91l.27,3a1.43,1.43,0,0,0,1,1.16l5,1.35.89.24.89-.24,5-1.36a1.4,1.4,0,0,0,1-1.16l.55-6.07a.84.84,0,0,0-.84-.92H11.56a1,1,0,0,1-1-.92l-1.34-15c0-.51-.11-1.29-.15-1.74a.79.79,0,0,1,.84-.82H38.64A.79.79,0,0,1,39.49,25.6Z"/><text class="cls-2" transform="translate(7.87 9.79)">HTML5</text></g></g></g></svg>