<svg xmlns="http://www.w3.org/2000/svg" viewBox="0 0 636 636"><defs><style>.cls-1{fill:#9376e2;}.cls-2{fill:#fff;}</style></defs><g id="Camada_2" data-name="Camada 2"><g id="Camada_1-2" data-name="Camada 1"><circle class="cls-1" cx="318" cy="318" r="318"/></g><g id="Camada_2-2" data-name="Camada 2"><path class="cls-2" d="M614.33,364c-14-13.34-31.58-23.65-64.83-37.94-43.19-18.56-51.71-25.77-51.92-43.9-.07-6.42.36-8.49,2.75-13.36q8.25-16.81,31.79-15.49c14.92.85,25.33,7.14,34.41,20.81l4.54,6.82L594,266.2c12.59-8.08,24-15.58,25.46-16.68l2.56-2-5.65-8.37c-14.15-21-32.88-34.3-56.55-40.21-11.95-3-38.77-3.76-51.79-1.5-21.45,3.74-36.63,11.26-50.6,25.08-12.65,12.5-19.49,25-23,42.15-2.5,12.07-1.49,35,2.05,46.8,9.06,30.22,29.41,49.69,71.24,68.15L536,392.14c29.88,13.21,39.34,22.68,39.34,39.38,0,15.44-9.83,26.19-28.39,31-9.94,2.59-28.9,1.68-39.32-1.89-14.18-4.87-27.77-15.83-37.11-29.93-2.7-4.06-4.3-5.61-5.38-5.2C462,426.71,413,455.43,413,456.06c0,.36,3.09,5.33,6.88,11.05,21.8,33,56.09,51.77,100,54.83h0C580,520,579,500,602,461c7.61-12.91,17.63-37.76,22-54C631,381,633.81,382.57,614.33,364Z"/><path class="cls-2" d="M312,199l0,111.75c0,66.88-.42,115.53-1,121.18-2,18.7-9,27.8-23.77,30.94-21,4.45-36.6-4-49.42-26.62-1.64-2.89-3.45-5.25-4-5.25-.95,0-50.1,29.28-52.09,31s10.37,20.87,20.07,30.7c16.6,16.83,40.09,27.23,65.76,29.12,61.94,4.55,101.36-24.14,108.47-78.95.57-4.36,1-56,1-125.65L377,199H312Z"/></g></g></svg>