<svg width="31" height="31" viewBox="0 0 31 31" fill="none" xmlns="http://www.w3.org/2000/svg">
<g clip-path="url(#clip0)">
<path d="M30.9192 11.2859C30.7163 10.6582 30.1595 10.2124 29.5008 10.153L20.5533 9.3406L17.0153 1.05942C16.7544 0.452517 16.1603 0.0596619 15.5002 0.0596619C14.84 0.0596619 14.2459 0.452517 13.985 1.06084L10.447 9.3406L1.4981 10.153C0.840578 10.2138 0.285236 10.6582 0.0811215 11.2859C-0.122993 11.9137 0.0655114 12.6022 0.562907 13.0362L7.32612 18.9676L5.3318 27.7525C5.18587 28.3984 5.43658 29.0661 5.97253 29.4535C6.26061 29.6617 6.59765 29.7676 6.93752 29.7676C7.23057 29.7676 7.52125 29.6886 7.78212 29.5325L15.5002 24.9197L23.2154 29.5325C23.7799 29.8722 24.4916 29.8412 25.0264 29.4535C25.5625 29.0649 25.813 28.397 25.6671 27.7525L23.6728 18.9676L30.436 13.0374C30.9334 12.6022 31.1233 11.9148 30.9192 11.2859Z" fill="#9376E2"/>
</g>
<defs>
<clipPath id="clip0">
<rect width="31" height="31" fill="white"/>
</clipPath>
</defs>
</svg>
