<svg width="128" height="128" viewBox="0 0 128 128" fill="none" xmlns="http://www.w3.org/2000/svg">
<g clip-path="url(#clip0)">
<path d="M14.9269 10.7182C14.9269 11.8958 13.9721 12.8506 12.7945 12.8506C11.6169 12.8506 10.6621 11.8958 10.6621 10.7182C10.6621 9.5406 11.6169 8.58581 12.7945 8.58581C13.9721 8.58581 14.9269 9.5406 14.9269 10.7182Z" fill="#9376E2"/>
<path d="M23.4567 10.7182C23.4567 11.8958 22.5019 12.8506 21.3243 12.8506C20.1467 12.8506 19.1919 11.8958 19.1919 10.7182C19.1919 9.5406 20.1467 8.58581 21.3243 8.58581C22.5019 8.58581 23.4567 9.5406 23.4567 10.7182Z" fill="#9376E2"/>
<path d="M31.986 10.7182C31.986 11.8958 31.0312 12.8506 29.8536 12.8506C28.676 12.8506 27.7212 11.8958 27.7212 10.7182C27.7212 9.5406 28.676 8.58581 29.8536 8.58581C31.0312 8.58581 31.986 9.5406 31.986 10.7182Z" fill="#9376E2"/>
<path d="M44.7803 8.58581C43.6027 8.58581 42.6479 9.5406 42.6479 10.7182C42.6479 11.8958 43.6027 12.8506 44.7803 12.8506H98.0902C99.2679 12.8506 100.223 11.8958 100.223 10.7182C100.223 9.5406 99.2679 8.58581 98.0902 8.58581H44.7803Z" fill="#9376E2"/>
<path d="M30.749 104.544H4.26479V21.3802H98.0902C99.2678 21.3802 100.223 20.4254 100.223 19.2478C100.223 18.0702 99.2678 17.1154 98.0902 17.1154H4.26479V4.32101H104.487V30.8052C104.487 31.9828 105.442 32.9376 106.62 32.9376C107.797 32.9376 108.752 31.9828 108.752 30.8052V2.18862C108.752 1.01101 107.797 0.056221 106.62 0.056221H2.1324C0.954789 0.056221 0 1.01101 0 2.18862V106.676C0 107.854 0.954789 108.808 2.1324 108.808H30.749C31.9266 108.808 32.8814 107.854 32.8814 106.676C32.8814 105.498 31.9266 104.544 30.749 104.544Z" fill="#9376E2"/>
<path d="M127.325 118.319L115.597 106.676L122.464 102.092C123.171 101.629 123.539 100.793 123.402 99.9592C123.259 99.1283 122.641 98.4599 121.823 98.2527L93.1859 90.6404C92.4529 90.4498 91.6752 90.6612 91.14 91.1964C90.6048 91.7316 90.3934 92.5093 90.584 93.2424L98.09 121.88C98.2972 122.697 98.9657 123.316 99.7955 123.458C100.63 123.596 101.467 123.227 101.928 122.52L106.62 115.653L118.348 127.382C118.75 127.78 119.295 128.003 119.862 128C120.428 128.003 120.974 127.78 121.376 127.382L127.41 121.347C127.803 120.935 128.015 120.384 127.999 119.815C127.983 119.247 127.741 118.708 127.325 118.319ZM119.776 122.861L107.707 110.792C107.31 110.397 106.774 110.176 106.215 110.173H106.001C105.368 110.238 104.798 110.582 104.445 111.112L101.032 116.208L95.638 95.6944L116.152 101.089L111.055 104.544C110.525 104.897 110.182 105.467 110.117 106.1C110.059 106.732 110.286 107.358 110.736 107.806L122.804 119.875L119.776 122.861Z" fill="#9376E2"/>
<path d="M88.6223 112.028C84.1743 113.875 79.443 114.95 74.6337 115.206V96.0141C77.7865 96.088 80.933 96.3369 84.0587 96.7606C85.2363 96.9251 86.3254 96.1047 86.4899 94.9271C86.6544 93.7484 85.834 92.6603 84.6564 92.4958C81.3318 92.0606 77.9853 91.8118 74.6337 91.7493V74.6901H95.9576C95.8494 78.0345 95.5224 81.3684 94.9768 84.6701C94.7821 85.8477 95.5797 86.9597 96.7573 87.1544C97.9349 87.3481 99.0469 86.5516 99.2416 85.3729C99.808 81.838 100.136 78.2687 100.222 74.6901H115.149C114.927 79.4932 113.889 84.2234 112.079 88.6788C111.637 89.7616 112.151 90.9996 113.23 91.4505C113.486 91.5598 113.761 91.6181 114.04 91.6212C114.914 91.6223 115.7 91.0902 116.024 90.2781C118.301 84.6493 119.453 78.629 119.414 72.5577C119.419 61.55 115.538 50.8943 108.453 42.4699C99.5498 31.8183 86.3848 25.6575 72.5013 25.645H70.9655C60.6107 25.9844 50.6557 29.7328 42.6477 36.307C41.7346 37.0546 41.6013 38.4008 42.3489 39.314C43.0975 40.2261 44.4428 40.3604 45.3559 39.6118C49.0605 36.5641 53.2472 34.1569 57.7453 32.4899C54.1885 36.3601 51.396 40.8675 49.5145 45.7747C45.8786 44.7428 42.3166 43.4684 38.8525 41.9576C38.0071 41.6005 37.0273 41.8233 36.4213 42.5126C36.4213 42.5126 36.3141 42.5126 36.2714 42.6406C29.3723 51.0588 25.6042 61.6094 25.6094 72.4942C25.6104 83.3998 29.4275 93.9608 36.3994 102.348L36.5494 102.517C45.4173 113.232 58.5928 119.444 72.5013 119.47C78.5799 119.475 84.6001 118.287 90.2216 115.973C90.9734 115.721 91.5231 115.072 91.6481 114.289C91.7741 113.506 91.4544 112.718 90.8193 112.243C90.1841 111.769 89.3376 111.686 88.6223 112.028ZM70.3689 115.014C63.5667 113.926 57.5745 107.551 53.7147 98.1673C59.178 96.8824 64.7588 96.1599 70.3689 96.0141V115.014ZM70.3689 91.7493C64.2549 91.8753 58.1711 92.6541 52.2227 94.0733C50.2579 87.7937 49.1876 81.2685 49.0449 74.6901H70.3689V91.7493ZM29.9596 74.6901H44.7801C44.9134 81.6652 46.0337 88.5851 48.1068 95.2467C44.9467 96.1692 41.8429 97.2729 38.8098 98.5515C33.483 91.6931 30.3937 83.3634 29.9596 74.6901ZM91.1597 46.969C85.7371 48.2371 80.2 48.9514 74.6337 49.1013V30.1232C81.3724 31.2529 87.3 37.6501 91.1597 46.969ZM70.3689 70.4253H49.0449C49.1782 63.823 50.2558 57.2748 52.2435 50.9776C58.1826 52.4176 64.2591 53.2183 70.3689 53.3661V70.4253ZM74.6337 53.3661C80.6977 53.236 86.7304 52.4634 92.631 51.063C94.6114 57.3321 95.688 63.8522 95.8296 70.4253H74.6337V53.3661ZM115.149 70.4253H100.222C100.095 63.4586 98.9824 56.545 96.9176 49.8906C100.122 48.9702 103.27 47.8592 106.343 46.5639C111.654 53.4276 114.728 61.7572 115.149 70.4253ZM103.421 43.1519C100.819 44.1983 98.164 45.1094 95.4672 45.8819C93.5972 40.9393 90.788 36.4059 87.1938 32.5326C93.3046 34.8014 98.8178 38.4331 103.315 43.1519H103.421ZM70.3689 30.1014V49.1013C64.7588 48.9618 59.179 48.2476 53.7147 46.969C57.5745 37.5647 63.5667 31.1894 70.3689 30.1014ZM44.7801 70.4253H29.8533C30.2938 61.7604 33.3664 53.4369 38.6599 46.5639C41.7002 47.8425 44.8124 48.9462 47.9787 49.8687C45.9452 56.5356 44.8686 63.4565 44.7801 70.4253ZM41.6877 101.964C44.2491 100.935 46.8615 100.038 49.5145 99.2762C51.3897 104.158 54.1677 108.644 57.7026 112.497C51.6313 110.253 46.1535 106.649 41.6877 101.964Z" fill="#9376E2"/>
<path d="M121.717 52.0438C122.044 52.8403 122.818 53.362 123.679 53.3661C123.959 53.3734 124.236 53.3151 124.489 53.1954C125.569 52.7435 126.082 51.5065 125.641 50.4237C123.446 45.1177 120.454 40.1782 116.769 35.7739C115.988 35.0742 114.812 35.0481 113.999 35.7114C113.187 36.3757 112.977 37.5335 113.507 38.4394C116.915 42.5334 119.684 47.121 121.717 52.0438Z" fill="#9376E2"/>
<path d="M28.2115 35.7739C19.6268 46.11 14.9278 59.1219 14.9268 72.5577C14.9268 73.7353 15.8815 74.6901 17.0592 74.6901C18.2368 74.6901 19.1916 73.7353 19.1916 72.5577C19.1791 60.0965 23.5324 48.0247 31.4955 38.4394C32.2494 37.5325 32.1255 36.1862 31.2186 35.4324C30.3117 34.6785 28.9654 34.8035 28.2115 35.7104V35.7739Z" fill="#9376E2"/>
</g>
<defs>
<clipPath id="clip0">
<rect width="128" height="128" fill="white"/>
</clipPath>
</defs>
</svg>
