<svg width="37" height="37" viewBox="0 0 37 37" fill="none" xmlns="http://www.w3.org/2000/svg">
<path d="M15.4167 20.0417C16.0788 20.9268 16.9235 21.6592 17.8935 22.1891C18.8635 22.7191 19.9362 23.0342 21.0387 23.1132C22.1412 23.1921 23.2478 23.0331 24.2834 22.6467C25.319 22.2604 26.2595 21.6559 27.0409 20.8742L31.6659 16.2492C33.0701 14.7954 33.847 12.8482 33.8294 10.8271C33.8119 8.80601 33.0012 6.87267 31.572 5.44348C30.1428 4.01429 28.2095 3.20361 26.1884 3.18605C24.1673 3.16849 22.2201 3.94545 20.7663 5.34958L18.1147 7.98583" stroke="white" stroke-width="2" stroke-linecap="round" stroke-linejoin="round"/>
<path d="M21.5834 16.9583C20.9213 16.0732 20.0766 15.3408 19.1066 14.8109C18.1366 14.2809 17.064 13.9658 15.9615 13.8868C14.859 13.8079 13.7524 13.9669 12.7167 14.3533C11.6811 14.7396 10.7407 15.3441 9.95923 16.1258L5.33423 20.7508C3.9301 22.2046 3.15314 24.1518 3.1707 26.1729C3.18826 28.194 3.99894 30.1273 5.42813 31.5565C6.85732 32.9857 8.79066 33.7964 10.8118 33.8139C12.8329 33.8315 14.78 33.0546 16.2338 31.6504L18.8701 29.0142" stroke="white" stroke-width="2" stroke-linecap="round" stroke-linejoin="round"/>
</svg>
